<svg width="919" height="804" viewBox="0 0 919 804" fill="none" xmlns="http://www.w3.org/2000/svg">
<g clip-path="url(#clip0_284_25)">
<path d="M44.3269 273.979L0.0318073 249.03C-0.565684 222.337 5.36166 195.902 17.2992 172.02C27.5116 218.372 81.2561 240.425 106.053 280.896C113.69 293.578 118.376 307.815 119.763 322.554C121.149 337.293 119.202 352.155 114.064 366.039L116.977 401.977C94.0836 395.12 72.9491 383.381 55.0293 367.57C37.1095 351.759 22.8306 332.25 13.1762 310.389C7.88168 298.071 4.15937 285.136 2.09715 271.888C22.7494 274.086 44.3269 273.979 44.3269 273.979Z" fill="#F2F2F2"/>
<path d="M840.604 727.863L841.962 697.322C856.121 689.754 871.914 685.756 887.969 685.676C865.873 703.742 868.634 738.566 853.653 762.859C848.923 770.4 842.556 776.78 835.025 781.527C827.493 786.273 818.99 789.263 810.146 790.276L791.655 801.598C789.118 787.453 789.677 772.926 793.295 759.018C796.912 745.11 803.502 732.152 812.61 721.036C817.781 714.851 823.711 709.341 830.259 704.637C834.687 716.315 840.604 727.863 840.604 727.863Z" fill="#F2F2F2"/>
<path d="M792.96 785.881L776.216 785.88L768.25 721.298L792.963 721.3L792.96 785.881Z" fill="#FFB6B6"/>
<path d="M797.229 802.111L743.242 802.109V801.426C743.242 795.853 745.456 790.509 749.397 786.568C753.338 782.627 758.682 780.413 764.255 780.413L774.118 772.932L792.518 780.414L797.23 780.414L797.229 802.111Z" fill="#2F2E41"/>
<path d="M715.173 785.881L698.43 785.88L690.464 721.298L715.177 721.3L715.173 785.881Z" fill="#FFB6B6"/>
<path d="M719.443 802.111L665.455 802.109V801.426C665.455 795.853 667.67 790.509 671.61 786.568C675.551 782.627 680.896 780.413 686.469 780.413L696.332 772.932L714.731 780.414L719.444 780.414L719.443 802.111Z" fill="#2F2E41"/>
<path d="M707.925 432.808L816.832 435.531C837.515 446.765 837.829 471.08 831.052 499.949C831.052 499.949 833.34 517.108 828.765 521.684C824.189 526.259 821.901 526.259 824.189 534.267C826.477 542.274 814.389 555.353 815.857 556.821C817.325 558.289 820.757 566.297 820.757 566.297L809.318 631.5C809.318 631.5 801.31 744.749 799.022 747.037C796.735 749.325 794.447 747.037 796.735 752.756C799.022 758.476 801.31 756.188 799.022 758.476C796.996 760.661 795.087 762.952 793.303 765.34H765.646C765.646 765.34 763.561 753.9 763.561 752.756C763.561 751.612 761.273 744.749 761.273 743.605C761.273 742.461 763.295 740.439 763.295 740.439C763.994 738.113 764.466 735.726 764.705 733.31C764.705 731.022 771.568 642.94 771.568 642.94L757.841 528.547L724.668 640.652C724.668 640.652 724.668 739.029 722.38 741.317C720.092 743.605 720.092 742.461 721.236 747.037C722.38 751.612 726.955 750.468 723.524 753.9C720.092 757.332 718.948 751.612 720.092 757.332L721.236 763.052L686.918 763.543C686.918 763.543 682.342 753.9 684.63 750.468C686.918 747.037 686.781 747.973 683.99 742.357C681.198 736.741 680.054 735.597 681.198 734.454C682.342 733.31 682.342 727.225 682.342 727.225L688.062 617.773C688.062 617.773 689.206 502.237 689.206 498.805C689.292 497.039 688.967 495.278 688.256 493.659V489.001L692.638 472.495L707.925 432.808Z" fill="#2F2E41"/>
<path d="M773.347 206.354C792.035 206.354 807.184 191.205 807.184 172.516C807.184 153.828 792.035 138.679 773.347 138.679C754.659 138.679 739.509 153.828 739.509 172.516C739.509 191.205 754.659 206.354 773.347 206.354Z" fill="#FFB6B6"/>
<path d="M756.428 228.719C749.139 233.053 744.778 241.016 742.274 249.118C737.64 264.12 734.85 279.631 733.967 295.307L731.323 342.239L698.577 442.171C726.957 466.185 833.633 447.629 833.633 447.629C833.633 447.629 836.908 446.537 833.633 443.263C830.359 439.988 827.171 442.889 830.445 439.615C833.72 436.34 831.463 439.988 830.371 436.714C829.28 433.439 830.371 435.622 831.463 434.53C832.554 433.439 823.013 423.615 823.013 423.615L831.745 366.253L842.66 250.549C829.562 234.176 803.219 224.524 803.219 224.524L796.412 212.272L762.379 214.995L756.428 228.719Z" fill="#E6E6E6"/>
<path d="M751.787 152.658C753.096 152.668 754.399 152.839 755.667 153.167C758.166 153.768 760.704 154.193 763.262 154.441C771.095 155.178 778.456 158.518 784.168 163.929C789.88 169.34 793.614 176.509 794.774 184.291C796.74 182.577 801.214 179.424 804.882 182.354C804.937 182.401 804.97 182.425 805.099 182.364C807.534 181.208 811.858 166.988 811.989 154.466C812.058 147.821 811.012 139.334 805.637 136.647L805.354 136.505L805.279 136.197C804.92 134.703 800.908 132.151 793.935 130.165C781.263 126.555 762.374 119.524 751.737 129.872C750.932 133.36 748.313 140.825 745.668 141.671C742.738 142.608 740.208 143.416 739.81 147.01C739.476 152.123 739.501 157.254 739.882 162.365C740.875 159.237 742.823 156.5 745.453 154.539C747.323 153.28 749.533 152.624 751.787 152.658Z" fill="#2F2E41"/>
<path d="M688.805 339.627L744.079 304.227L716.24 267.219L688.749 301.035L603.096 306.288C600.843 304.061 597.991 302.538 594.887 301.904C591.784 301.27 588.563 301.552 585.617 302.717C582.671 303.882 580.128 305.879 578.298 308.465C576.467 311.05 575.428 314.112 575.308 317.278C575.188 320.443 575.991 323.575 577.62 326.292C579.249 329.009 581.634 331.193 584.483 332.578C587.332 333.963 590.522 334.489 593.665 334.093C596.808 333.696 599.767 332.393 602.182 330.344L688.805 339.627Z" fill="#FFB6B6"/>
<path d="M795.381 254.817C798.589 274.232 738.007 311.306 738.007 311.306C738.006 306.749 701.848 341.151 700.216 337.372C695.577 326.631 692.316 301.189 685.834 297.117C682.127 294.788 708.159 272.912 708.159 272.912C708.159 272.912 721.785 259.184 739.667 241.869C744.631 236.88 750.778 233.228 757.533 231.254C764.289 229.279 771.434 229.046 778.304 230.575C778.304 230.575 792.173 235.402 795.381 254.817Z" fill="#E6E6E6"/>
<path d="M909.31 348.919L872.748 294.406L836.338 323.023L870.728 349.791L877.794 435.314C875.615 437.614 874.152 440.497 873.584 443.614C873.016 446.73 873.367 449.945 874.594 452.865C875.821 455.786 877.871 458.286 880.495 460.061C883.119 461.836 886.202 462.81 889.369 462.863C892.537 462.916 895.651 462.047 898.333 460.361C901.014 458.674 903.147 456.244 904.472 453.367C905.796 450.489 906.255 447.288 905.792 444.155C905.328 441.021 903.963 438.09 901.863 435.718L909.31 348.919Z" fill="#FFB6B6"/>
<path d="M822.263 244.162C841.606 240.543 879.954 300.327 879.954 300.327C875.399 300.424 910.559 335.846 906.815 337.558C896.174 342.423 870.807 346.222 866.873 352.789C864.624 356.544 842.201 330.982 842.201 330.982C842.201 330.982 828.188 317.649 810.498 300.138C805.405 295.28 801.624 289.213 799.507 282.501C797.389 275.788 797.005 268.65 798.389 261.749C798.389 261.749 802.921 247.78 822.263 244.162Z" fill="#E6E6E6"/>
<path d="M918.651 802.38C918.652 802.593 918.61 802.804 918.529 803.001C918.448 803.198 918.329 803.376 918.178 803.527C918.027 803.678 917.849 803.797 917.652 803.878C917.455 803.959 917.244 804.001 917.031 804H535.464C535.034 804 534.622 803.829 534.318 803.526C534.014 803.222 533.844 802.81 533.844 802.38C533.844 801.95 534.014 801.538 534.318 801.235C534.622 800.931 535.034 800.76 535.464 800.76H917.031C917.244 800.759 917.455 800.801 917.652 800.882C917.849 800.963 918.027 801.083 918.178 801.233C918.329 801.384 918.448 801.562 918.529 801.759C918.61 801.956 918.652 802.167 918.651 802.38Z" fill="#CCCCCC"/>
<path d="M565.172 311.462H102.088C94.8533 311.47 87.917 314.348 82.8011 319.463C77.6852 324.579 74.8075 331.516 74.7993 338.751V627.064C74.8075 634.299 77.6852 641.236 82.8011 646.351C87.917 651.467 94.8533 654.345 102.088 654.353H565.172C572.407 654.345 579.343 651.468 584.459 646.352C589.575 641.236 592.453 634.299 592.461 627.064V338.751C592.453 331.516 589.575 324.579 584.459 319.463C579.343 314.347 572.407 311.47 565.172 311.462Z" fill="#14ABB7"/>
<path d="M565.172 311.462H102.088C94.8533 311.47 87.917 314.348 82.8011 319.463C77.6852 324.579 74.8075 331.516 74.7993 338.751V627.064C74.8075 634.299 77.6852 641.236 82.8011 646.351C87.917 651.467 94.8533 654.345 102.088 654.353H565.172C572.407 654.345 579.343 651.468 584.459 646.352C589.575 641.236 592.453 634.299 592.461 627.064V338.751C592.453 331.516 589.575 324.579 584.459 319.463C579.343 314.347 572.407 311.47 565.172 311.462ZM574.128 518.561C574.017 547.913 562.407 576.053 541.787 596.943C521.168 617.833 493.183 629.81 463.835 630.304C416.846 630.916 489.833 631.154 433.162 631.154C303.573 631.154 168.448 629.916 118.031 629.113C111.398 628.976 105.081 626.252 100.429 621.521C95.7768 616.791 93.1585 610.429 93.1328 603.794V338.772C93.1354 336.396 94.0789 334.118 95.7568 332.436C97.4347 330.754 99.7105 329.805 102.086 329.796H565.153C567.529 329.799 569.806 330.742 571.488 332.42C573.17 334.097 574.119 336.373 574.128 338.748V518.561Z" fill="#3F3D56"/>
<path d="M508.168 145.442H155.346C152.225 145.446 149.18 146.414 146.629 148.213C144.078 150.012 142.144 152.554 141.092 155.493L86.601 308.37C85.7877 310.652 85.5341 313.096 85.8615 315.496C86.1889 317.897 87.0877 320.183 88.4823 322.164C89.877 324.144 91.7267 325.761 93.8761 326.879C96.0255 327.996 98.4118 328.581 100.834 328.585L574.025 329.424H574.046C576.551 329.424 579.016 328.803 581.22 327.615C583.425 326.428 585.301 324.712 586.68 322.622C588.058 320.531 588.896 318.131 589.119 315.637C589.342 313.142 588.942 310.632 587.956 308.33L522.077 154.613C520.912 151.89 518.973 149.569 516.5 147.938C514.027 146.307 511.13 145.439 508.168 145.442Z" fill="#3F3D56"/>
<path d="M589.181 311.65C589.179 313.7 588.762 315.728 587.955 317.613L522.081 435.94C520.908 438.657 518.966 440.972 516.494 442.6C514.022 444.228 511.128 445.098 508.168 445.101H155.352C152.229 445.098 149.183 444.132 146.63 442.334C144.077 440.536 142.14 437.994 141.085 435.055L86.6046 317.572C85.9368 315.7 85.6444 313.715 85.7442 311.731C85.8439 309.746 86.3339 307.8 87.186 306.005C88.0381 304.21 89.2357 302.6 90.7103 301.268C92.1849 299.936 93.9076 298.907 95.7799 298.241C97.3996 297.656 99.1085 297.357 100.83 297.356L158.633 297.247L182.224 297.206L492.662 296.662L516.268 296.621L574.029 296.512H574.043C578.057 296.513 581.907 298.108 584.746 300.947C587.585 303.786 589.18 307.636 589.181 311.65Z" fill="#3F3D56"/>
<path d="M136.805 527.73C143.802 527.73 239.877 533.602 239.877 540.598C239.877 547.595 143.802 553.066 136.805 553.066C133.445 553.066 130.223 551.732 127.848 549.356C125.472 546.98 124.137 543.758 124.137 540.398C124.137 537.038 125.472 533.816 127.848 531.441C130.223 529.065 133.445 527.73 136.805 527.73Z" fill="#3F3D56"/>
<path d="M486.196 52.4391H188.705C180.732 52.4483 173.088 55.6195 167.451 61.2571C161.813 66.8946 158.642 74.5382 158.633 82.5109V445.101H508.168C511.038 445.11 513.85 444.293 516.268 442.746V82.5109C516.259 74.5382 513.088 66.8947 507.45 61.2571C501.812 55.6195 494.169 52.4483 486.196 52.4391Z" fill="#E6E6E6"/>
<path d="M372.647 76.8206H209.614C202.354 76.8276 195.394 79.7138 190.259 84.8459C185.124 89.9781 182.235 96.9372 182.224 104.197V445.101H492.662V196.836C492.625 165.017 479.969 134.512 457.47 112.013C434.971 89.5134 404.466 76.8573 372.647 76.8206Z" fill="white"/>
<path d="M439.774 414.825H235.112C233.343 414.825 231.646 415.528 230.395 416.779C229.144 418.03 228.441 419.727 228.441 421.496C228.441 423.265 229.144 424.962 230.395 426.213C231.646 427.464 233.343 428.166 235.112 428.166H439.774C441.543 428.166 443.24 427.464 444.491 426.213C445.742 424.962 446.445 423.265 446.445 421.496C446.445 419.727 445.742 418.03 444.491 416.779C443.24 415.528 441.543 414.825 439.774 414.825Z" fill="#E4E4E4"/>
<path d="M439.775 388.443H235.112C233.341 388.443 231.643 389.146 230.391 390.399C229.139 391.651 228.435 393.349 228.435 395.12C228.435 396.891 229.139 398.59 230.391 399.842C231.643 401.094 233.341 401.798 235.112 401.798H439.775C441.546 401.798 443.244 401.094 444.496 399.842C445.749 398.59 446.452 396.891 446.452 395.12C446.452 393.349 445.749 391.651 444.496 390.399C443.244 389.146 441.546 388.443 439.775 388.443Z" fill="#E4E4E4"/>
<path d="M323.83 362.074H235.112C233.343 362.074 231.646 362.777 230.395 364.028C229.144 365.279 228.441 366.975 228.441 368.744C228.441 370.513 229.144 372.21 230.395 373.461C231.646 374.712 233.343 375.415 235.112 375.415H323.83C325.599 375.415 327.296 374.712 328.547 373.461C329.798 372.21 330.5 370.513 330.5 368.744C330.5 366.975 329.798 365.279 328.547 364.028C327.296 362.777 325.599 362.074 323.83 362.074Z" fill="#E4E4E4"/>
<path d="M439.775 306.831H235.112C233.341 306.831 231.643 307.534 230.391 308.787C229.139 310.039 228.435 311.737 228.435 313.508C228.435 315.279 229.139 316.978 230.391 318.23C231.643 319.482 233.341 320.186 235.112 320.186H439.775C441.546 320.186 443.244 319.482 444.496 318.23C445.749 316.978 446.452 315.279 446.452 313.508C446.452 311.737 445.749 310.039 444.496 308.787C443.244 307.534 441.546 306.831 439.775 306.831Z" fill="#E4E4E4"/>
<path d="M439.774 280.462H235.112C233.343 280.462 231.646 281.165 230.395 282.416C229.144 283.667 228.441 285.363 228.441 287.133C228.441 288.902 229.144 290.598 230.395 291.849C231.646 293.1 233.343 293.803 235.112 293.803H439.774C441.543 293.803 443.24 293.1 444.491 291.849C445.742 290.598 446.445 288.902 446.445 287.133C446.445 285.363 445.742 283.667 444.491 282.416C443.24 281.165 441.543 280.462 439.774 280.462Z" fill="#E4E4E4"/>
<path d="M323.83 254.079H235.112C233.341 254.079 231.643 254.783 230.391 256.035C229.139 257.287 228.435 258.986 228.435 260.757C228.435 262.528 229.139 264.226 230.391 265.478C231.643 266.73 233.341 267.434 235.112 267.434H323.83C325.601 267.434 327.3 266.73 328.552 265.478C329.804 264.226 330.508 262.528 330.508 260.757C330.508 258.986 329.804 257.287 328.552 256.035C327.3 254.783 325.601 254.079 323.83 254.079Z" fill="#E4E4E4"/>
<path d="M439.775 198.837H235.112C233.341 198.837 231.643 199.54 230.391 200.792C229.139 202.045 228.435 203.743 228.435 205.514C228.435 207.285 229.139 208.983 230.391 210.236C231.643 211.488 233.341 212.191 235.112 212.191H439.775C441.546 212.191 443.244 211.488 444.496 210.236C445.749 208.983 446.452 207.285 446.452 205.514C446.452 203.743 445.749 202.045 444.496 200.792C443.244 199.54 441.546 198.837 439.775 198.837Z" fill="#14ABB7"/>
<path d="M439.775 172.468H235.112C233.341 172.468 231.643 173.171 230.391 174.424C229.139 175.676 228.435 177.374 228.435 179.145C228.435 180.916 229.139 182.614 230.391 183.867C231.643 185.119 233.341 185.822 235.112 185.822H439.775C441.546 185.822 443.244 185.119 444.496 183.867C445.749 182.614 446.452 180.916 446.452 179.145C446.452 177.374 445.749 175.676 444.496 174.424C443.244 173.171 441.546 172.468 439.775 172.468Z" fill="#14ABB7"/>
<path d="M323.83 146.085H235.112C233.341 146.085 231.643 146.789 230.391 148.041C229.139 149.293 228.435 150.991 228.435 152.762C228.435 154.533 229.139 156.232 230.391 157.484C231.643 158.736 233.341 159.44 235.112 159.44H323.83C325.601 159.44 327.3 158.736 328.552 157.484C329.804 156.232 330.508 154.533 330.508 152.762C330.508 150.991 329.804 149.293 328.552 148.041C327.3 146.789 325.601 146.085 323.83 146.085Z" fill="#14ABB7"/>
<path d="M505.114 103.904C533.807 103.904 557.067 80.6446 557.067 51.9522C557.067 23.2598 533.807 0 505.114 0C476.422 0 453.162 23.2598 453.162 51.9522C453.162 80.6446 476.422 103.904 505.114 103.904Z" fill="#14ABB7"/>
<path d="M498.028 78.991C497.131 78.991 496.246 78.782 495.443 78.3807C494.641 77.9794 493.943 77.3967 493.405 76.6789L479.232 57.7808C478.774 57.1738 478.44 56.4825 478.25 55.7465C478.06 55.0104 478.017 54.2441 478.123 53.4914C478.23 52.7386 478.484 52.0143 478.871 51.3599C479.258 50.7055 479.77 50.1339 480.378 49.6778C480.986 49.2216 481.679 48.89 482.415 48.7019C483.152 48.5137 483.918 48.4728 484.671 48.5813C485.423 48.6899 486.147 48.9459 486.8 49.3346C487.453 49.7233 488.024 50.237 488.478 50.8465L497.751 63.2092L521.566 27.486C522.417 26.2107 523.739 25.3254 525.242 25.0248C526.744 24.7243 528.305 25.033 529.581 25.8832C530.856 26.7334 531.741 28.0554 532.042 29.5583C532.342 31.0613 532.033 32.6221 531.183 33.8973L502.837 76.4175C502.324 77.1865 501.634 77.8213 500.825 78.2687C500.017 78.7162 499.112 78.9632 498.188 78.9891C498.135 78.99 498.081 78.991 498.028 78.991Z" fill="white"/>
</g>
<defs>
<clipPath id="clip0_284_25">
<rect width="918.651" height="804" fill="white"/>
</clipPath>
</defs>
</svg>
