<svg width="752" height="670" viewBox="0 0 752 670" fill="none" xmlns="http://www.w3.org/2000/svg">
<g clip-path="url(#clip0_275_281)">
<path d="M86.1519 669.03L85.4983 668.787C63.3554 660.435 46.0073 642.766 38.0627 620.474C35.9102 614.278 34.5463 607.837 34.0033 601.3L33.9499 600.676L34.5659 600.787C41.9195 602.106 49.6391 602.836 53.0786 603.121L33.7822 590.352L33.8171 589.689C34.1175 583.455 38.1804 578.032 44.0782 575.991C50.0323 573.793 56.7251 575.437 60.9819 580.145C62.9003 582.227 64.9285 584.323 66.8896 586.35C73.6292 593.316 80.5984 600.519 85.0051 609.021C91.6325 622.123 91.9923 637.515 85.9841 650.912L86.1519 669.03Z" fill="#F2F2F2"/>
<path d="M476.589 656.657L476.581 656.588C475.728 637.649 472.253 618.92 466.255 600.936L466.25 600.907C465.9 599.06 466.001 597.155 466.546 595.356C468.221 590.199 473.415 587.042 478.764 587.93C484.29 588.968 490.004 587.993 494.872 585.18C497.964 583.387 501.715 583.138 505.016 584.509C508.129 585.777 510.457 588.444 511.294 591.7C511.36 591.956 511.417 592.214 511.466 592.477C511.641 611.505 515.137 630.356 521.794 648.182L521.798 648.205C522.495 651.886 521.383 655.678 518.81 658.401C516.536 660.709 513.349 661.88 510.121 661.593C504.327 661.199 498.368 662.374 491.903 665.188C489.645 666.193 487.106 666.371 484.73 665.692C480.527 664.46 477.378 660.965 476.589 656.657Z" fill="#14ABB7"/>
<path d="M291.366 396.499V645.2H465.597V396.499C465.603 392.828 463.213 389.581 459.704 388.497C458.899 388.231 458.055 388.1 457.207 388.109H299.781C295.142 388.1 291.375 391.853 291.366 396.491V396.499ZM359.361 481.954C359.456 471.682 367.859 463.431 378.132 463.526C388.27 463.619 396.466 471.815 396.56 481.954V510.811C396.511 521.083 388.144 529.37 377.872 529.322C367.669 529.274 359.409 521.014 359.361 510.811V481.954Z" fill="#F2F2F2"/>
<path d="M290.833 637.246V661.229C290.841 663.814 292.928 665.911 295.513 665.933H461.451C464.039 665.92 466.131 663.818 466.131 661.229V637.246H290.833Z" fill="#E6E6E6"/>
<path d="M17.2766 21.8002V475.892C17.2862 487.941 27.0517 497.706 39.101 497.716H712.018C724.067 497.706 733.833 487.941 733.842 475.892V21.8002C733.814 9.76272 724.055 0.01527 712.018 0H39.101C27.0635 0.01533 17.3053 9.76275 17.2766 21.8002Z" fill="#E6E6E6"/>
<path d="M706.404 15.7622H44.7148C38.2694 15.7762 33.0516 21.0049 33.051 27.4504V470.29C33.0621 476.728 38.2777 481.943 44.7148 481.954H706.404C712.842 481.943 718.057 476.728 718.068 470.29V27.4504C718.068 21.0049 712.85 15.7762 706.404 15.7622ZM539.491 330.38C537.513 334.288 533.502 336.747 529.123 336.736L529.053 336.731C522.71 335.848 516.343 335.265 509.953 334.983C510.945 335.694 511.818 336.557 512.54 337.541C514.394 340.199 514.964 343.546 514.093 346.667C512.648 352.292 512.716 358.366 514.304 365.235C514.88 367.639 514.592 370.168 513.491 372.38C511.513 376.288 507.502 378.747 503.123 378.736L503.053 378.731C487.905 376.621 472.568 376.213 457.328 377.513C457.268 377.897 457.192 378.283 457.093 378.667C455.648 384.292 455.716 390.366 457.304 397.235C457.88 399.639 457.592 402.168 456.491 404.38C454.513 408.288 450.502 410.747 446.123 410.736L446.053 410.731C430.495 408.566 414.74 408.195 399.098 409.626C398.979 413.532 399.385 417.437 400.304 421.235C400.88 423.639 400.592 426.168 399.491 428.38C397.513 432.288 393.502 434.747 389.123 434.736L389.053 434.731C370.277 432.115 351.228 432.115 332.452 434.731H332.421C330.542 434.739 328.688 434.291 327.018 433.428C322.253 430.84 320.097 425.157 321.946 420.06C322.513 418.455 322.935 416.802 323.205 415.122C305.998 413.139 288.608 413.343 271.452 415.731H271.421C269.542 415.739 267.688 415.291 266.018 414.428C261.253 411.84 259.097 406.157 260.946 401.06C262.975 395.816 263.058 390.02 261.18 384.72C260.295 382.235 260.295 379.521 261.18 377.036C248.246 376.377 235.278 376.945 222.452 378.731H222.421C220.542 378.739 218.688 378.291 217.018 377.428C212.253 374.84 210.097 369.157 211.946 364.06C213.975 358.816 214.058 353.02 212.18 347.72C210.981 344.353 211.421 340.62 213.371 337.624C215.186 334.795 218.233 332.992 221.586 332.763C221.85 332.746 222.115 332.736 222.382 332.736C228.954 333.885 235.589 334.635 242.252 334.981C238.002 332.187 236.221 326.844 237.946 322.06C239.975 316.816 240.058 311.02 238.18 305.72C236.981 302.353 237.421 298.62 239.371 295.624C239.455 295.495 239.553 295.38 239.642 295.256C234.901 295.583 230.171 296.075 225.452 296.731H225.421C223.542 296.739 221.688 296.291 220.018 295.428C215.253 292.84 213.097 287.157 214.946 282.06C216.975 276.816 217.058 271.02 215.18 265.72C213.981 262.353 214.421 258.62 216.371 255.624C218.186 252.795 221.233 250.992 224.586 250.763C224.85 250.746 225.115 250.736 225.382 250.736C233.284 252.12 241.277 252.924 249.296 253.144C247.25 250.195 246.748 246.442 247.946 243.06C249.975 237.816 250.058 232.02 248.18 226.72C246.981 223.353 247.421 219.62 249.371 216.624C251.186 213.795 254.233 211.992 257.586 211.763C257.85 211.746 258.115 211.736 258.382 211.736C265.069 212.906 271.822 213.662 278.602 214C277.146 211.242 276.908 208.001 277.946 205.06C279.975 199.816 280.058 194.02 278.18 188.72C276.981 185.353 277.421 181.62 279.371 178.624C281.186 175.795 284.233 173.992 287.586 173.763C287.85 173.746 288.115 173.736 288.382 173.736C296.251 175.114 304.209 175.917 312.194 176.14C311.107 173.572 311.018 170.69 311.946 168.06C313.975 162.816 314.058 157.02 312.18 151.72C310.981 148.353 311.421 144.62 313.371 141.624C315.186 138.795 318.233 136.992 321.586 136.763C321.85 136.746 322.115 136.736 322.382 136.736C341.123 140.035 360.295 140.037 379.037 136.744H379.06C380.507 137.042 381.998 137.042 383.445 136.744H383.468C402.21 140.037 421.382 140.035 440.123 136.736C440.39 136.736 440.655 136.746 440.919 136.763C444.272 136.992 447.319 138.795 449.134 141.624C451.084 144.62 451.524 148.353 450.325 151.72C448.447 157.02 448.53 162.816 450.559 168.06C451.487 170.69 451.398 173.572 450.311 176.14C458.296 175.917 466.254 175.114 474.123 173.736C474.39 173.736 474.655 173.746 474.919 173.763C478.272 173.992 481.319 175.795 483.134 178.624C485.084 181.62 485.524 185.353 484.325 188.72C482.447 194.02 482.53 199.816 484.559 205.06C485.597 208.001 485.359 211.242 483.903 214C490.683 213.662 497.436 212.906 504.123 211.736C504.39 211.736 504.655 211.746 504.919 211.763C508.272 211.992 511.319 213.795 513.134 216.624C515.084 219.62 515.524 223.353 514.325 226.72C512.447 232.02 512.53 237.816 514.559 243.06C515.761 246.451 515.253 250.214 513.195 253.165C514.088 253.839 514.878 254.64 515.54 255.541C517.394 258.199 517.964 261.546 517.093 264.667C515.648 270.292 515.716 276.366 517.304 283.235C517.88 285.639 517.592 288.168 516.491 290.38C516.088 291.168 515.597 291.907 515.028 292.585C519.709 292.173 524.379 291.56 529.037 290.744H529.06C532.806 290.73 536.332 292.515 538.54 295.541C540.394 298.199 540.964 301.546 540.093 304.667C538.648 310.292 538.716 316.366 540.304 323.235C540.88 325.639 540.592 328.168 539.491 330.38Z" fill="white"/>
<path d="M684.942 76.7651H65.8023C64.4425 76.7352 63.3645 75.6085 63.3944 74.2487C63.4234 72.9311 64.4847 71.8698 65.8023 71.8408H684.942C686.302 71.8708 687.38 72.9974 687.35 74.3572C687.321 75.6748 686.26 76.7361 684.942 76.7651Z" fill="#E6E6E6"/>
<path d="M382.852 422.94L382.783 422.935C364.006 420.319 344.958 420.319 326.181 422.935H326.151C324.271 422.942 322.418 422.495 320.748 421.631C315.983 419.044 313.827 413.36 315.676 408.263C317.704 403.02 317.787 397.223 315.91 391.924C314.711 388.557 315.151 384.823 317.1 381.828C318.916 378.999 321.963 377.196 325.316 376.967C325.58 376.949 325.844 376.94 326.112 376.94C344.853 380.238 364.025 380.241 382.766 376.947H382.79C386.536 376.934 390.062 378.718 392.269 381.745C394.124 384.402 394.694 387.749 393.823 390.871C392.378 396.496 392.446 402.569 394.034 409.439C394.61 411.842 394.322 414.372 393.22 416.584C391.243 420.491 387.232 422.95 382.852 422.94Z" fill="#14ABB7"/>
<path d="M440.595 324.893L425.49 312.393C414.162 318.33 396.925 342.034 396.925 342.034L357.162 370.633C352.386 370.86 348.699 374.916 348.927 379.691C349.154 384.467 353.21 388.154 357.985 387.926C361.084 387.779 363.867 385.984 365.28 383.222L419.308 354.672L440.595 324.893Z" fill="#FFB8B8"/>
<path d="M466.08 277.317C474.799 284.7 475.881 297.754 468.497 306.472C467.67 307.449 466.754 308.347 465.76 309.155L456.154 316.964C456.154 316.964 432.194 351.457 419.722 355.459L387.702 372.186L373.265 357.711L402.284 334.062C402.284 334.062 415.631 321.437 416.967 312.196C417.786 306.536 427.364 291.12 436.965 279.685C444.334 270.993 457.354 269.919 466.047 277.288L466.08 277.317Z" fill="#3F3D56"/>
<path d="M435.037 651.672L421.39 651.671L414.898 599.031L435.04 599.032L435.037 651.672Z" fill="#FFB6B6"/>
<path d="M435.518 665.908L393.551 665.907V665.376C393.551 656.355 400.864 649.042 409.885 649.042L417.552 643.226L431.855 649.043L435.518 649.043L435.518 665.908Z" fill="#2F2E41"/>
<path d="M539.021 579.842L532.558 591.861L483.12 572.653L492.659 554.913L539.021 579.842Z" fill="#FFB6B6"/>
<path d="M551.788 586.16L531.914 623.123L531.446 622.871C523.501 618.599 520.523 608.695 524.794 600.749L524.795 600.748L523.303 591.243L535.198 581.399L536.933 578.173L551.788 586.16Z" fill="#2F2E41"/>
<path d="M409.235 410.61L397.19 506.97L403.213 539.276L511.617 586.768L517.64 567.195C489.93 550.239 460.309 524.578 441.645 522.691C441.645 522.691 440.096 505.591 453.468 495.038C456.165 492.909 455.575 490.028 456.666 487.417C457.417 485.621 460.401 483.751 461.165 481.909C462.156 479.521 460.93 477.149 461.926 474.723C462.486 473.359 464.609 473.274 465.165 471.909C466.115 469.58 465.493 465.975 466.418 463.674C468.395 458.758 470.295 453.951 472.03 449.444C477.431 435.417 481.232 424.303 480.752 421.903C479.246 414.374 409.235 410.61 409.235 410.61Z" fill="#2F2E41"/>
<path d="M407.16 506.691L400.859 547.385L416.763 630.431H437.842C445.415 602.527 445.805 565.852 438.595 534.824L407.16 506.691Z" fill="#2F2E41"/>
<path d="M420.703 292.878L430.42 275.946L440.853 267.577L460.426 264.565L465.864 268.747C485.434 298.657 492.732 334.956 486.242 370.105L484.715 378.379L483.745 383.631L484.165 389.908L480.898 399.048L481.348 405.74L481.588 409.314L481.829 412.901L482.165 417.908C482.767 420.766 479.736 420.389 480.165 422.908C480.918 427.332 484.293 433.887 479.165 433.908L426.165 422.908C412.7 422.964 400.165 406.908 413.165 393.908L420.703 292.878Z" fill="#3F3D56"/>
<path d="M445.511 259.849C459.725 259.849 471.248 248.326 471.248 234.112C471.248 219.898 459.725 208.375 445.511 208.375C431.297 208.375 419.775 219.898 419.775 234.112C419.775 248.326 431.297 259.849 445.511 259.849Z" fill="#FFB8B8"/>
<path d="M445.947 259.118C449.713 259.176 453.477 258.913 457.198 258.331C460.886 257.581 469.137 251.535 471.437 247.897C473.146 245.193 474.239 240.972 474.854 237.907C476.532 229.704 474.653 221.175 469.684 214.436C468.739 213.043 467.436 211.93 465.911 211.216C465.776 211.164 465.637 211.117 465.496 211.077C463.275 210.492 461.278 209.257 459.764 207.529C459.47 207.18 459.151 206.852 458.811 206.549C457.099 205.104 455.069 204.085 452.888 203.575C449.367 202.632 444.272 203.568 437.744 206.357C434.465 207.759 430.878 207.252 428.119 206.653C427.804 206.592 427.48 206.703 427.269 206.944C426.095 208.047 424.547 208.663 422.937 208.671C421.951 208.714 420.916 210.08 419.666 211.861C419.382 212.265 419.051 212.737 418.812 213.024L418.78 212.472L418.222 213.087C415.352 216.251 415.59 221.142 418.753 224.012C419.604 224.783 420.615 225.355 421.714 225.687C422.706 225.951 423.722 226.113 424.747 226.171C425.368 226.227 426.01 226.284 426.626 226.391C430.644 227.214 433.934 230.087 435.29 233.958C435.859 235.543 437.605 236.367 439.19 235.799C439.439 235.71 439.675 235.588 439.893 235.438C441.194 234.425 442.909 234.113 444.484 234.602C445.154 234.975 445.676 235.567 445.962 236.279C446.309 237.072 446.885 237.744 447.616 238.209C450.115 239.497 450.288 245.206 449.39 249.965C448.525 254.552 446.814 257.87 445.231 258.034C444.011 258.16 443.872 258.247 443.784 258.463L443.705 258.656L443.842 258.836C444.515 259.08 445.233 259.176 445.947 259.118Z" fill="#2F2E41"/>
<path d="M393.852 243.94L393.783 243.935C375.006 241.319 355.958 241.319 337.181 243.935H337.151C335.271 243.942 333.418 243.495 331.748 242.631C326.983 240.044 324.827 234.36 326.676 229.263C328.704 224.02 328.787 218.223 326.91 212.924C325.711 209.557 326.151 205.823 328.1 202.828C329.916 199.999 332.963 198.196 336.316 197.967C336.58 197.949 336.844 197.94 337.112 197.94C355.853 201.238 375.025 201.241 393.766 197.947H393.79C397.536 197.934 401.062 199.718 403.269 202.745C405.124 205.402 405.694 208.749 404.823 211.871C403.378 217.496 403.446 223.569 405.034 230.439C405.61 232.842 405.322 235.372 404.22 237.584C402.243 241.491 398.232 243.95 393.852 243.94Z" fill="#14ABB7"/>
<path d="M417.919 304.556L428.569 288.093C421.349 277.537 395.792 263.189 395.792 263.189L362.743 227.039C361.959 222.323 357.5 219.135 352.784 219.919C348.068 220.703 344.88 225.162 345.664 229.878C346.173 232.938 348.281 235.493 351.189 236.573L385.857 286.894L417.919 304.556Z" fill="#FFB8B8"/>
<path d="M468.148 324.307C461.834 333.828 448.996 336.428 439.475 330.114C438.408 329.407 437.409 328.601 436.491 327.709L427.613 319.082C427.613 319.082 390.398 299.65 384.966 287.731L360.582 253.144L376.931 238.395L405.35 264.229C405.35 264.229 418.434 279.359 427.768 279.606C433.485 279.757 449.915 287.469 462.393 295.667C471.888 301.97 474.475 314.776 468.172 324.27L468.148 324.307Z" fill="#3F3D56"/>
<path d="M220.238 665.759L220.169 665.754C201.392 663.138 182.344 663.138 163.567 665.754H163.537C161.657 665.761 159.804 665.314 158.134 664.45C153.369 661.862 151.213 656.179 153.062 651.082C155.09 645.839 155.173 640.042 153.296 634.743C152.097 631.376 152.537 627.642 154.486 624.646C156.302 621.818 159.349 620.015 162.702 619.786C162.966 619.768 163.23 619.759 163.498 619.759C182.239 623.057 201.411 623.06 220.152 619.766H220.176C223.922 619.753 227.448 621.537 229.655 624.564C231.51 627.221 232.08 630.568 231.209 633.689C229.764 639.314 229.832 645.388 231.42 652.258C231.996 654.661 231.708 657.19 230.606 659.403C228.629 663.31 224.618 665.769 220.238 665.759Z" fill="#14ABB7"/>
<path d="M236.238 623.759L236.169 623.754C217.392 621.138 198.344 621.138 179.567 623.754H179.537C177.657 623.761 175.804 623.314 174.134 622.45C169.369 619.862 167.213 614.179 169.062 609.082C171.09 603.839 171.173 598.042 169.296 592.743C168.097 589.376 168.537 585.642 170.486 582.646C172.302 579.818 175.349 578.015 178.702 577.786C178.966 577.768 179.23 577.759 179.498 577.759C198.239 581.057 217.411 581.06 236.152 577.766H236.176C239.922 577.753 243.448 579.537 245.655 582.564C247.51 585.221 248.08 588.568 247.209 591.689C245.764 597.314 245.832 603.388 247.42 610.258C247.996 612.661 247.708 615.19 246.606 617.403C244.629 621.31 240.618 623.769 236.238 623.759Z" fill="#14ABB7"/>
<path d="M96.2254 635.208L96.2683 635.154C108.956 621.067 119.629 605.29 127.983 588.272L128 588.247C129.048 586.686 130.457 585.401 132.108 584.502C136.921 582.005 142.836 583.404 146.022 587.791C149.229 592.409 153.983 595.726 159.425 597.14C162.885 598.034 165.731 600.49 167.12 603.784C168.446 606.872 168.232 610.406 166.543 613.312C166.409 613.54 166.269 613.765 166.119 613.986C152.886 627.661 142.141 643.539 134.368 660.908L134.355 660.927C132.267 664.038 128.814 665.958 125.07 666.09C121.829 666.138 118.738 664.734 116.641 662.264C112.791 657.915 107.722 654.569 101.143 652.035C98.8293 651.165 96.8956 649.509 95.6804 647.357C93.5521 643.53 93.763 638.83 96.2254 635.208Z" fill="#14ABB7"/>
<path d="M749.935 667.284L1.18448 667.591C0.526887 667.588 -0.00342336 667.052 1.66416e-05 666.395C0.00341664 665.742 0.531737 665.214 1.18448 665.21L749.935 664.903C750.592 664.906 751.122 665.442 751.119 666.1C751.116 666.752 750.587 667.281 749.935 667.284Z" fill="#CACACA"/>
<path d="M160.252 53.9083C164.922 53.9083 168.708 50.0378 168.708 45.2632C168.708 40.4887 164.922 36.6182 160.252 36.6182C155.581 36.6182 151.795 40.4887 151.795 45.2632C151.795 50.0378 155.581 53.9083 160.252 53.9083Z" fill="#3F3D56"/>
<path d="M189.465 53.9083C194.136 53.9083 197.922 50.0378 197.922 45.2632C197.922 40.4887 194.136 36.6182 189.465 36.6182C184.795 36.6182 181.009 40.4887 181.009 45.2632C181.009 50.0378 184.795 53.9083 189.465 53.9083Z" fill="#3F3D56"/>
<path d="M218.679 53.9083C223.349 53.9083 227.136 50.0378 227.136 45.2632C227.136 40.4887 223.349 36.6182 218.679 36.6182C214.009 36.6182 210.222 40.4887 210.222 45.2632C210.222 50.0378 214.009 53.9083 218.679 53.9083Z" fill="#3F3D56"/>
<path d="M251.99 52.0962C251.731 52.0962 251.471 51.9956 251.276 51.7954L245.569 45.9624C245.189 45.5737 245.189 44.9526 245.569 44.564L251.276 38.7314C251.663 38.3369 252.297 38.3306 252.69 38.7158C253.085 39.1021 253.091 39.7354 252.705 40.1299L247.683 45.2632L252.705 50.397C253.091 50.7915 253.085 51.4248 252.69 51.811C252.495 52.0015 252.243 52.0962 251.99 52.0962Z" fill="#3F3D56"/>
<path d="M261.579 52.0959C261.326 52.0959 261.074 52.0012 260.88 51.8108C260.485 51.4246 260.478 50.7917 260.864 50.3967L265.886 45.2629L260.864 40.1296C260.478 39.7351 260.485 39.1018 260.88 38.7156C261.274 38.3289 261.908 38.3362 262.294 38.7312L267.999 44.5637C268.38 44.9524 268.38 45.5735 267.999 45.9622L262.294 51.7952C262.098 51.9954 261.839 52.0959 261.579 52.0959Z" fill="#3F3D56"/>
<path d="M560.089 37.6191H549.479C548.269 37.6191 547.289 38.5991 547.289 39.8091V50.4291C547.289 51.6392 548.269 52.6191 549.479 52.6191H560.089C561.299 52.6191 562.289 51.6392 562.289 50.4291V39.8091C562.289 38.5991 561.299 37.6191 560.089 37.6191Z" fill="#3F3D56"/>
<path d="M534.089 37.6191H523.479C522.269 37.6191 521.289 38.5991 521.289 39.8091V50.4291C521.289 51.6392 522.269 52.6191 523.479 52.6191H534.089C535.299 52.6191 536.289 51.6392 536.289 50.4291V39.8091C536.289 38.5991 535.299 37.6191 534.089 37.6191Z" fill="#3F3D56"/>
<path d="M584.589 38.1191H573.979C572.769 38.1191 571.789 39.0991 571.789 40.3091V50.9291C571.789 52.1392 572.769 53.1191 573.979 53.1191H584.589C585.799 53.1191 586.789 52.1392 586.789 50.9291V40.3091C586.789 39.0991 585.799 38.1191 584.589 38.1191Z" fill="#3F3D56"/>
<path d="M424.667 42.1592H339.857C338.377 42.1592 337.187 43.3592 337.187 44.8292C337.187 46.2992 338.377 47.4992 339.857 47.4992H424.667C426.137 47.4992 427.337 46.2992 427.337 44.8292C427.337 43.3592 426.137 42.1592 424.667 42.1592Z" fill="#3F3D56"/>
</g>
<defs>
<clipPath id="clip0_275_281">
<rect width="751.119" height="669.03" fill="white"/>
</clipPath>
</defs>
</svg>
