<svg width="609" height="801" viewBox="0 0 609 801" fill="none" xmlns="http://www.w3.org/2000/svg">
<g clip-path="url(#clip0_274_75)">
<path d="M394.727 188.12H390.374V68.962C390.374 50.672 383.108 33.1313 370.175 20.1984C357.242 7.26559 339.701 -1.92286e-09 321.411 0H68.963C50.6731 -1.9229e-09 33.1322 7.26559 20.1992 20.1984C7.26612 33.1313 0.000265214 50.672 0 68.962V722.662C0.000265214 740.952 7.26612 758.493 20.1992 771.426C33.1322 784.358 50.6731 791.624 68.963 791.624H321.412C339.702 791.624 357.243 784.358 370.176 771.425C383.109 758.492 390.375 740.951 390.375 722.661V272.937H394.727V188.12Z" fill="#090814"/>
<path d="M324.203 17.943H291.251C292.767 21.6583 293.345 25.6893 292.936 29.681C292.527 33.6726 291.142 37.5023 288.904 40.8327C286.666 44.163 283.643 46.8919 280.102 48.7788C276.56 50.6657 272.61 51.6528 268.597 51.653H123.965C119.952 51.6529 116.001 50.666 112.46 48.7792C108.919 46.8923 105.896 44.1635 103.657 40.8331C101.419 37.5027 100.034 33.6729 99.625 29.6812C99.2157 25.6895 99.7943 21.6584 101.31 17.943H70.533C56.8743 17.943 43.7751 23.3689 34.1169 33.027C24.4588 42.6851 19.033 55.7844 19.033 69.443V722.189C19.033 735.848 24.4588 748.947 34.1169 758.605C43.7751 768.263 56.8743 773.689 70.533 773.689H324.193C337.852 773.689 350.951 768.263 360.609 758.605C370.267 748.947 375.693 735.848 375.693 722.189V69.445C375.693 55.7879 370.268 42.69 360.612 33.0322C350.956 23.3743 337.859 17.9474 324.202 17.945L324.203 17.943Z" fill="white"/>
<path d="M197.364 497.848C269.864 497.848 328.636 439.076 328.636 366.576C328.636 294.076 269.864 235.304 197.364 235.304C124.865 235.304 66.092 294.076 66.092 366.576C66.092 439.076 124.865 497.848 197.364 497.848Z" fill="#E6E6E6"/>
<path d="M316.384 119.972H77.8401C71.2127 119.972 65.8401 125.345 65.8401 131.972V152.98C65.8401 159.607 71.2127 164.98 77.8401 164.98H316.384C323.012 164.98 328.384 159.607 328.384 152.98V131.972C328.384 125.345 323.012 119.972 316.384 119.972Z" fill="#E6E6E6"/>
<path d="M92.0941 636.621C106.594 636.621 118.348 624.867 118.348 610.367C118.348 595.867 106.594 584.113 92.0941 584.113C77.5944 584.113 65.8401 595.867 65.8401 610.367C65.8401 624.867 77.5944 636.621 92.0941 636.621Z" fill="#E6E6E6"/>
<path d="M302.129 636.621C316.629 636.621 328.383 624.867 328.383 610.367C328.383 595.867 316.629 584.113 302.129 584.113C287.629 584.113 275.875 595.867 275.875 610.367C275.875 624.867 287.629 636.621 302.129 636.621Z" fill="#E6E6E6"/>
<path d="M162.418 636.621C176.918 636.621 188.672 624.867 188.672 610.367C188.672 595.867 176.918 584.113 162.418 584.113C147.918 584.113 136.164 595.867 136.164 610.367C136.164 624.867 147.918 636.621 162.418 636.621Z" fill="#E6E6E6"/>
<path d="M231.805 636.621C246.305 636.621 258.059 624.867 258.059 610.367C258.059 595.867 246.305 584.113 231.805 584.113C217.305 584.113 205.551 595.867 205.551 610.367C205.551 624.867 217.305 636.621 231.805 636.621Z" fill="#E6E6E6"/>
<path d="M248.201 417.65V399.116C248.252 391.117 246.514 383.207 243.113 375.966C239.713 368.725 234.736 362.336 228.548 357.267C219.134 349.677 205.5 344.001 185.967 345.267L193.408 315.503L129.145 359.472L192.055 403.441L185.629 375.368C185.629 375.368 224.864 367.931 248.201 417.65Z" fill="#14ABB7"/>
<path d="M97.095 599.116C98.7522 599.117 100.341 599.776 101.513 600.948C102.684 602.12 103.342 603.71 103.342 605.367V615.367C103.342 617.024 102.683 618.613 101.512 619.784C100.341 620.956 98.7519 621.615 97.095 621.616H87.095C85.4375 621.616 83.8476 620.959 82.675 619.787C81.5024 618.616 80.8431 617.026 80.842 615.369V605.369C80.8418 604.548 81.0033 603.735 81.3173 602.976C81.6313 602.218 82.0917 601.528 82.6722 600.948C83.2527 600.367 83.9419 599.906 84.7004 599.592C85.459 599.278 86.272 599.116 87.093 599.116H97.095ZM92.095 605.367C90.812 605.366 89.5779 605.859 88.6479 606.743C87.718 607.627 87.1634 608.835 87.099 610.116L87.093 610.366C87.093 611.355 87.3863 612.322 87.9357 613.144C88.4851 613.966 89.266 614.607 90.1796 614.985C91.0933 615.364 92.0986 615.463 93.0685 615.27C94.0384 615.077 94.9293 614.601 95.6286 613.902C96.3278 613.202 96.804 612.311 96.997 611.341C97.1899 610.372 97.0909 609.366 96.7124 608.453C96.334 607.539 95.6931 606.758 94.8709 606.209C94.0486 605.659 93.0819 605.366 92.093 605.366M97.718 603.491C97.4125 603.491 97.1175 603.603 96.8889 603.806C96.6602 604.008 96.5137 604.288 96.477 604.591L96.468 604.75C96.4668 605.07 96.5881 605.378 96.807 605.611C97.0259 605.844 97.3258 605.984 97.6449 606.003C97.9641 606.021 98.2783 605.917 98.5229 605.711C98.7675 605.505 98.9239 605.214 98.96 604.896L98.969 604.737C98.969 604.405 98.8373 604.088 98.6029 603.853C98.3685 603.619 98.0506 603.487 97.719 603.487" fill="#090814"/>
<path d="M162.418 621.62C168.632 621.62 173.67 616.582 173.67 610.368C173.67 604.154 168.632 599.116 162.418 599.116C156.204 599.116 151.166 604.154 151.166 610.368C151.166 616.582 156.204 621.62 162.418 621.62Z" fill="black"/>
<path d="M159.392 604.897H157.711L165.452 615.975H167.134L159.392 604.897ZM156.221 604.075H159.921L163.121 608.739L167.134 604.075H168.229L163.608 609.446L168.633 616.76H164.933L161.553 611.835L157.316 616.76H156.221L161.068 611.129L156.221 604.075Z" fill="white"/>
<path d="M241.256 599.118H222.476C222.235 599.106 221.993 599.142 221.766 599.224C221.538 599.306 221.329 599.432 221.15 599.594C220.972 599.757 220.827 599.954 220.724 600.173C220.622 600.392 220.564 600.629 220.553 600.87V619.69C220.566 620.196 220.773 620.678 221.13 621.037C221.488 621.396 221.97 621.604 222.476 621.618H241.251C241.744 621.597 242.209 621.383 242.546 621.023C242.883 620.662 243.064 620.183 243.051 619.69V600.87C243.055 600.635 243.011 600.401 242.921 600.184C242.831 599.966 242.698 599.769 242.529 599.605C242.361 599.441 242.16 599.313 241.941 599.229C241.721 599.146 241.486 599.108 241.251 599.118H241.256ZM227.53 617.874H224.306V607.851H227.53V617.874ZM226.03 606.328H226.007C225.543 606.325 225.099 606.138 224.773 605.809C224.446 605.479 224.264 605.033 224.266 604.569C224.267 604.105 224.452 603.661 224.781 603.333C225.11 603.006 225.555 602.822 226.018 602.822C226.482 602.822 226.927 603.006 227.256 603.333C227.585 603.661 227.77 604.105 227.771 604.569C227.773 605.033 227.591 605.479 227.264 605.809C226.938 606.138 226.494 606.325 226.03 606.328ZM239.313 617.873H236.089V612.393C236.089 611.08 235.62 610.183 234.453 610.183C234.088 610.186 233.733 610.302 233.437 610.515C233.141 610.728 232.918 611.028 232.8 611.373C232.714 611.628 232.676 611.896 232.688 612.164V617.872H229.464V607.851H232.688V609.246C232.981 608.738 233.406 608.319 233.918 608.032C234.429 607.745 235.009 607.601 235.595 607.616C237.711 607.616 239.312 609.01 239.313 612.016V617.873Z" fill="#090814"/>
<path d="M313.377 605.344V615.994C313.377 616.855 313.048 617.684 312.457 618.31C311.866 618.936 311.059 619.313 310.199 619.364L309.999 619.37H294.253C293.392 619.37 292.563 619.041 291.937 618.45C291.31 617.859 290.933 617.052 290.883 616.192L290.877 615.994V605.344L301.504 612.429L301.635 612.503C301.789 612.578 301.958 612.617 302.129 612.617C302.3 612.617 302.469 612.578 302.623 612.503L302.754 612.429L313.377 605.344Z" fill="black"/>
<path d="M310.006 601.366C310.582 601.365 311.15 601.513 311.653 601.794C312.156 602.075 312.579 602.481 312.881 602.972L302.133 610.139L291.378 602.972C291.66 602.513 292.047 602.129 292.508 601.85C292.969 601.572 293.49 601.408 294.027 601.372L294.253 601.366H310.006Z" fill="black"/>
<path d="M566.016 362.326H537.562L534.231 340.379L555.62 337.537L566.016 362.326Z" fill="#9F616A"/>
<path d="M555.306 338.083L534.801 340.808L537.992 361.826H565.264L555.306 338.083ZM555.933 336.991L566.768 362.826H537.132L533.66 339.951L555.933 336.991Z" fill="#707070"/>
<path d="M466.21 555.568C467.391 554.857 468.402 553.896 469.171 552.752C469.94 551.609 470.45 550.31 470.663 548.948C470.876 547.586 470.788 546.194 470.406 544.87C470.023 543.546 469.354 542.322 468.447 541.284L485.047 512.184L467.671 513.307L454.571 540.772C452.929 542.412 451.945 544.597 451.806 546.913C451.667 549.23 452.382 551.517 453.817 553.341C455.251 555.165 457.305 556.4 459.589 556.811C461.873 557.222 464.228 556.781 466.209 555.572L466.21 555.568Z" fill="#9F616A"/>
<path d="M595.265 757.886H579.921L577.065 709.635H594.035L595.265 757.886Z" fill="#9F616A"/>
<path d="M514.156 757.624L498.305 756.675V709.635H515.271L514.156 757.624Z" fill="#9F616A"/>
<path d="M485.71 513.431C485.71 513.431 482.548 558.459 488.776 581.131C495.004 603.803 496.115 740.946 496.115 740.946H516.992L535.08 554.277L576.792 741.609L596.674 740.242L585.774 519.496L485.71 513.431Z" fill="#090814"/>
<path d="M577.142 361.645L561.184 350L534.445 355.823L527.207 373.023L514.735 379.207C510.634 381.24 507.088 384.239 504.401 387.945C501.715 391.652 499.969 395.955 499.313 400.485L481.495 523.523L585.768 519.492L598.392 374.584C598.524 373.07 598.351 371.546 597.883 370.1C597.415 368.654 596.662 367.317 595.668 366.168C594.674 365.019 593.46 364.08 592.097 363.408C590.734 362.737 589.251 362.345 587.734 362.257L577.142 361.645Z" fill="#E4E4E4"/>
<path d="M508.137 388.818L498.506 401.801L456.559 529.74L476.222 537.613L507.706 477.996L508.137 388.818Z" fill="#E4E4E4"/>
<path d="M542.616 345.29C560.242 345.29 574.531 331.001 574.531 313.375C574.531 295.749 560.242 281.46 542.616 281.46C524.99 281.46 510.701 295.749 510.701 313.375C510.701 331.001 524.99 345.29 542.616 345.29Z" fill="#090814"/>
<path d="M543.048 346.737C555.911 346.737 566.338 336.31 566.338 323.447C566.338 310.584 555.911 300.157 543.048 300.157C530.185 300.157 519.758 310.584 519.758 323.447C519.758 336.31 530.185 346.737 543.048 346.737Z" fill="#9F616A"/>
<path d="M560.73 320.426C545.9 315.077 540.882 311.791 524.502 320.426L518.461 296.274H566.761L560.73 320.426Z" fill="#090814"/>
<path d="M540.028 299.725C550.032 299.725 558.142 291.615 558.142 281.611C558.142 271.607 550.032 263.497 540.028 263.497C530.024 263.497 521.914 271.607 521.914 281.611C521.914 291.615 530.024 299.725 540.028 299.725Z" fill="#090814"/>
<path d="M518.464 277.298C518.466 272.646 520.26 268.173 523.472 264.809C526.684 261.444 531.069 259.445 535.716 259.227C535.428 259.213 535.145 259.183 534.853 259.183C530.049 259.183 525.441 261.091 522.044 264.488C518.647 267.886 516.739 272.493 516.739 277.297C516.739 282.101 518.647 286.709 522.044 290.106C525.441 293.503 530.049 295.411 534.853 295.411C535.144 295.411 535.428 295.381 535.716 295.367C531.069 295.149 526.685 293.151 523.473 289.786C520.26 286.422 518.467 281.95 518.464 277.298Z" fill="#090814"/>
<path opacity="0.1" d="M584.929 396.186L578.429 460.964L555.481 506.192L584.929 396.186Z" fill="black"/>
<path d="M498.608 747.421L492.027 770.372L486.893 782.865C486.893 782.865 480.732 793.517 498.768 795.584C516.804 797.651 511.897 782.275 511.897 782.275L513.417 769.016L514.874 749.876L498.608 747.421Z" fill="#090814"/>
<path d="M595.564 749.61L598.547 774.348L602.639 787.964C602.639 787.964 607.992 799.753 588.894 800.064C569.796 800.375 576.514 784.774 576.514 784.774L580.427 771.287L578.767 750.976L595.564 749.61Z" fill="#090814"/>
<path d="M471.272 743.544C543.772 743.544 602.544 684.772 602.544 612.272C602.544 539.772 543.772 481 471.272 481C398.772 481 340 539.772 340 612.272C340 684.772 398.772 743.544 471.272 743.544Z" fill="#14ABB7"/>
<path d="M547.335 529.151C547.238 527.776 547.445 526.397 547.939 525.11C548.433 523.823 549.204 522.661 550.196 521.704C551.188 520.747 552.378 520.02 553.682 519.572C554.986 519.125 556.372 518.97 557.743 519.116L572.031 488.808L581.092 503.677L566.135 530.177C565.736 532.463 564.513 534.524 562.696 535.969C560.879 537.413 558.596 538.141 556.279 538.015C553.961 537.888 551.771 536.916 550.122 535.282C548.474 533.648 547.482 531.466 547.335 529.15V529.151Z" fill="#9F616A"/>
<path d="M586.181 370.613L592.065 362.939C592.065 362.939 606.402 360.019 608.837 379.711L607.3 467.256L575.883 516.705L555.483 511.495L582.16 452.753L586.181 370.613Z" fill="#E4E4E4"/>
<path d="M494.667 682H479.222V666.556H494.667V682ZM479.222 627.944H463.778V666.556H479.222V627.944ZM541 612.5H525.556V643.389H541V612.5ZM525.556 597.056H510.111V612.5H525.556V597.056ZM432.889 612.5H417.444V627.944H432.889V612.5ZM417.444 597.056H402V612.5H417.444V597.056ZM471.5 558.444H486.944V543H471.5V558.444ZM413.583 554.583V577.75H436.75V554.583H413.583ZM448.333 589.333H402V543H448.333V589.333ZM413.583 647.25V670.417H436.75V647.25H413.583ZM448.333 682H402V635.667H448.333V682ZM506.25 554.583V577.75H529.417V554.583H506.25ZM541 589.333H494.667V543H541V589.333ZM525.556 666.556V643.389H494.667V658.833H510.111V682H541V666.556H525.556ZM510.111 612.5H479.222V627.944H510.111V612.5ZM479.222 597.056H432.889V612.5H448.333V627.944H463.778V612.5H479.222V597.056ZM486.944 589.333V573.889H471.5V558.444H456.056V589.333H486.944ZM430.958 560.375H419.375V571.958H430.958V560.375ZM430.958 653.042H419.375V664.625H430.958V653.042ZM523.625 560.375H512.042V571.958H523.625V560.375Z" fill="white"/>
</g>
<defs>
<clipPath id="clip0_274_75">
<rect width="608.838" height="800.065" fill="white"/>
</clipPath>
</defs>
</svg>
