<svg width="24" height="24" viewBox="0 0 24 24" fill="none" xmlns="http://www.w3.org/2000/svg">
<rect width="24" height="24" rx="12" fill="white"/>
<circle cx="12" cy="12" r="11.4437" stroke="#088593" stroke-width="1.11258"/>
<path d="M15.002 4.04492C15.9768 3.82503 16.9451 4.4373 17.165 5.41211L18.1807 9.91504C15.8958 10.3134 14.1582 12.3063 14.1582 14.7051L14.166 14.9775C14.2008 15.6077 14.3561 16.2063 14.6084 16.75L7.12012 18.4385L6.9375 18.4707C6.08764 18.5738 5.2775 18.0619 5.00586 17.25L4.95605 17.0723L3.04492 8.59668C2.83887 7.68287 3.36384 6.77457 4.2334 6.4834L4.41211 6.43359L15.002 4.04492ZM15.3008 5.36816L4.70996 7.75781C4.46677 7.81302 4.31354 8.05451 4.36816 8.29785L6.28027 16.7734C6.33534 17.0169 6.57776 17.17 6.82129 17.1152L12.8877 15.7461C12.8305 15.4073 12.8018 15.0592 12.8018 14.7051C12.8018 12.136 14.3586 9.93254 16.5801 8.9834L15.8418 5.70996C15.7868 5.46646 15.5443 5.31338 15.3008 5.36816Z" fill="#078491"/>
<circle cx="18.721" cy="14.5167" r="3.27954" fill="#F5853F"/>
<path d="M17.0249 14.2114L18.3614 15.5345L20.4175 13.499" stroke="white" stroke-width="0.904702" stroke-linecap="round"/>
<circle cx="7.29885" cy="10.1062" r="1.13088" fill="#078491"/>
<circle cx="7.97756" cy="13.725" r="1.13088" fill="#078491"/>
<circle cx="10.9175" cy="13.0465" r="1.13088" fill="#078491"/>
<circle cx="10.4654" cy="9.42769" r="1.13088" fill="#078491"/>
<circle cx="13.6319" cy="8.74916" r="1.13088" fill="#078491"/>
</svg>
