<svg width="151" height="151" viewBox="0 0 151 151" fill="none" xmlns="http://www.w3.org/2000/svg">
<circle cx="75.5" cy="75.5" r="72" stroke="#088593" stroke-width="7"/>
<path d="M18.833 52.5686C19.7001 50.8 20.8239 49.7057 22.2044 49.2856C23.5887 48.8577 25.1535 49.0716 26.8986 49.9272C27.7516 50.3454 28.4922 50.8444 29.1204 51.4242C29.7408 52.0002 30.2136 52.6494 30.5389 53.3719C30.8563 54.0905 30.9969 54.8729 30.9606 55.719C30.9165 56.5613 30.6624 57.4559 30.1981 58.4029L29.8067 59.2011L35.5 61.9924L33.4972 66.0775L16.3352 57.6632L18.833 52.5686ZM22.106 54.6538L21.801 55.276L26.3438 57.5033L26.5222 57.1394C26.7064 56.7637 26.7854 56.3948 26.7592 56.0325C26.7251 55.6663 26.5607 55.3187 26.2657 54.9897C25.9668 54.649 25.5161 54.331 24.9135 54.0355C24.2405 53.7056 23.6705 53.5911 23.2035 53.6922C22.7366 53.7933 22.3707 54.1138 22.106 54.6538Z" fill="#088593"/>
<path d="M37.3313 30.4719L46.0889 39.4284C47.1103 40.473 47.7923 41.523 48.1351 42.5783C48.4778 43.6337 48.4875 44.6761 48.1641 45.7056C47.8347 46.729 47.1756 47.7241 46.1866 48.6911C44.7464 50.0994 43.2592 50.7918 41.725 50.7685C40.1908 50.7451 38.6531 49.9454 37.1119 48.3692L28.2728 39.3292L31.4993 36.1743L40.1844 45.0566C40.9097 45.7984 41.5316 46.218 42.0501 46.3155C42.5626 46.4069 43.0321 46.244 43.4586 45.827C43.7615 45.5309 43.9452 45.2242 44.0099 44.907C44.0746 44.5899 44.0083 44.2376 43.8109 43.8503C43.6075 43.4567 43.258 43.0065 42.7624 42.4997L34.0954 33.6359L37.3313 30.4719Z" fill="#088593"/>
<path d="M67.5587 37.1814L62.5968 38.9412L54.0003 29.4832L53.9025 29.5179C54.1826 30.1524 54.4346 30.7464 54.6584 31.2999C54.8875 31.8424 55.087 32.3403 55.257 32.7937C55.4322 33.2361 55.5805 33.6283 55.7019 33.9706L58.0381 40.558L54.0906 41.958L47.7536 24.0901L52.6789 22.3433L61.1425 31.5044L61.2403 31.4697C60.9939 30.8783 60.766 30.3263 60.5566 29.8135C60.3472 29.3007 60.1563 28.8272 59.984 28.393C59.8117 27.9588 59.6619 27.5625 59.5348 27.204L57.2375 20.7265L61.2217 19.3135L67.5587 37.1814Z" fill="#088593"/>
<path d="M80.1982 20.8855C79.7574 20.8769 79.3614 21.0076 79.0103 21.2775C78.6594 21.5387 78.3622 21.9263 78.1187 22.4404C77.8755 22.9458 77.6862 23.5647 77.5509 24.297C77.4156 25.0294 77.339 25.858 77.321 26.7828C77.2962 28.062 77.3835 29.1316 77.5829 29.9914C77.791 30.8515 78.1114 31.4976 78.544 31.9297C78.9766 32.3617 79.5256 32.5842 80.1912 32.5972C80.8048 32.6091 81.3948 32.5038 81.9612 32.2814C82.5362 32.0591 83.1121 31.7893 83.6889 31.4719L83.6104 35.517C82.9984 35.8596 82.3364 36.1105 81.6243 36.2696C80.9208 36.4288 80.1758 36.5008 79.3893 36.4855C77.8854 36.4563 76.622 36.06 75.5993 35.2965C74.5851 34.5332 73.8242 33.4246 73.3163 31.9708C72.8171 30.5171 72.5877 28.7487 72.6282 26.6657C72.6566 25.205 72.8424 23.877 73.1855 22.6818C73.5373 21.4867 74.0284 20.463 74.6589 19.6106C75.2893 18.7582 76.0413 18.107 76.9147 17.6571C77.7969 17.1986 78.7868 16.9801 79.8845 17.0014C80.7229 17.0177 81.5247 17.1414 82.2897 17.3724C83.0634 17.6036 83.8261 17.9556 84.5779 18.4285L83.313 22.1133C82.8186 21.7492 82.3184 21.4585 81.8125 21.2411C81.3067 21.0151 80.7686 20.8966 80.1982 20.8855Z" fill="#088593"/>
<path d="M100.328 45.6445L96.5091 43.241L100.722 36.5462L97.3309 34.412L93.1178 41.1068L89.2985 38.7033L99.3961 22.6578L103.215 25.0613L99.396 31.1305L102.787 33.2647L106.607 27.1955L110.426 29.599L100.328 45.6445Z" fill="#088593"/>
<path d="M106.388 49.2856L120.905 37.0928L123.808 40.5484L112.259 50.2476L115.437 54.0309L112.468 56.5245L106.388 49.2856Z" fill="#088593"/>
<path d="M125.466 59.6965L132.721 59.1656L134.512 63.4489L121.912 63.5997L115.2 66.4053L113.459 62.2417L120.028 59.4962L129.126 50.5633L130.936 54.8944L125.466 59.6965Z" fill="#088593"/>
<path d="M94.0645 53.1982C98.3743 52.2262 102.657 54.9314 103.629 59.2412L108.12 79.1504C98.0169 80.9106 90.3359 89.7241 90.3359 100.331L90.3438 100.934C90.4266 103.941 91.1276 106.795 92.3232 109.371L59.2148 116.839L58.8105 116.92C54.775 117.618 50.8537 115.139 49.751 111.195L49.6504 110.796L41.1982 73.3242C40.226 69.0143 42.9313 64.732 47.2412 63.7598L94.0645 53.1982ZM97.7764 60.5615C97.5333 59.4842 96.4621 58.8079 95.3848 59.0508L48.5615 69.6133C47.4842 69.8564 46.8078 70.9265 47.0508 72.0039L55.5029 109.476C55.7463 110.553 56.8173 111.229 57.8945 110.986L84.7207 104.935C84.4677 103.436 84.336 101.898 84.3359 100.331C84.3359 88.9721 91.219 79.2297 101.041 75.0332L97.7764 60.5615Z" fill="#078491"/>
<circle cx="110.5" cy="99.5" r="14.5" fill="#F5853F"/>
<path d="M103 98.15L108.909 104L118 95" stroke="white" stroke-width="4" stroke-linecap="round"/>
<circle cx="60" cy="80" r="5" fill="#078491"/>
<circle cx="63" cy="96" r="5" fill="#078491"/>
<circle cx="76" cy="93" r="5" fill="#078491"/>
<circle cx="74" cy="77" r="5" fill="#078491"/>
<circle cx="88" cy="74" r="5" fill="#078491"/>
</svg>
