<svg width="161" height="161" viewBox="0 0 161 161" fill="none" xmlns="http://www.w3.org/2000/svg">
<path d="M2.125 36.9583V19.5417C2.125 14.9225 3.95996 10.4925 7.22622 7.22622C10.4925 3.95996 14.9225 2.125 19.5417 2.125H36.9583M124.042 2.125H141.458C146.078 2.125 150.508 3.95996 153.774 7.22622C157.04 10.4925 158.875 14.9225 158.875 19.5417V36.9583M158.875 124.042V141.458C158.875 146.078 157.04 150.508 153.774 153.774C150.508 157.04 146.078 158.875 141.458 158.875H124.042M36.9583 158.875H19.5417C14.9225 158.875 10.4925 157.04 7.22622 153.774C3.95996 150.508 2.125 146.078 2.125 141.458V124.042" stroke="#999999" stroke-width="3.19898" stroke-linecap="round" stroke-linejoin="round"/>
</svg>
